<svg width="49px" height="48px" viewBox="0 0 49 48" version="1.1" xmlns="http://www.w3.org/2000/svg" xmlns:xlink="http://www.w3.org/1999/xlink">
  <defs>
      <path d="M23.7666543,47.3050385 C36.8926151,47.3050385 47.5333086,36.7154449 47.5333086,23.6525192 C47.5333086,10.5895936 36.8926151,0 23.7666543,0 C10.6406936,0 0,10.5895936 0,23.6525192 C0,36.7154449 10.6406936,47.3050385 23.7666543,47.3050385 Z" id="path-1"></path>
  </defs>
  <g id="curius.tv---sports" stroke="none" stroke-width="1" fill="none" fill-rule="evenodd" transform="translate(-147.000000, -652.000000)">
      <g id="video-thumb" transform="translate(30.000000, 597.000000)">
          <g id="play-btn" transform="translate(117.916667, 55.529412)">
              <g id="Oval-250">
                  <use fill-opacity="0.199275362" fill="#000000" fill-rule="evenodd" xlink:href="#path-1"></use>
                  <path stroke="#FFFFFF" stroke-width="3" d="M23.7666543,45.8050385 C36.0658001,45.8050385 46.0333086,35.8853971 46.0333086,23.6525192 C46.0333086,11.4196414 36.0658001,1.5 23.7666543,1.5 C11.4675086,1.5 1.5,11.4196414 1.5,23.6525192 C1.5,35.8853971 11.4675086,45.8050385 23.7666543,45.8050385 Z"></path>
              </g>
              <path d="M18.9752358,32.9942024 C18.0257459,33.5611604 17.2560322,33.1262243 17.2560322,32.0246019 L17.2560322,15.1984024 C17.2560322,14.0959487 18.0275781,13.6629379 18.9752358,14.2288019 L32.9693262,22.5849337 C33.9188161,23.1518918 33.9169839,24.0722065 32.9693262,24.6380706 L18.9752358,32.9942024 Z" id="Triangle-11" fill="#FFFFFF"></path>
          </g>
      </g>
  </g>
</svg>