<svg xmlns="http://www.w3.org/2000/svg" width="275" height="68" viewBox="0 0 275 68">
    <g fill="none" fill-rule="evenodd">
        <path fill="#FEFEFE" d="M9.974 65.695C4.465 65.695 0 61.23 0 55.718V9.984C0 4.47 4.465.024 9.974.024L264.354.02c5.51 0 9.98 4.467 9.98 9.973v45.74c0 5.507-4.47 9.972-9.98 9.972l-254.38-.011z"/>
        <path fill="#DD0031" d="M269.06 5.949A6.532 6.532 0 0 0 264.383 4H229l16.368 27.43 1.5.183.869 1.25v1.194l1.059.185.94 1.314v1.126l1.056.183 1.06 1.196v2.559s2.309 2.132 4.365 2.944c1.434.563 1.627 2.882 2.434 4.132 1.122 1.754 2.622 2.498 2.303 3.507-.737 2.691-3.479 7.203-6.034 7.451 0 0-6.354.011-10.102.011l.004 4.335h19.56c3.651 0 6.618-2.992 6.618-6.65V10.64a6.606 6.606 0 0 0-1.94-4.692"/>
        <path fill="#002D73" d="M218.406 4.024L9.64 4a6.592 6.592 0 0 0-4.697 1.95A6.614 6.614 0 0 0 3 10.652v45.683a6.61 6.61 0 0 0 1.942 4.695 6.584 6.584 0 0 0 4.697 1.942L196.038 63c-1.05-1.738-2.208-3.709-2.574-4.31h-4.944c-.004-12.264 4.183-19.087 9.128-20.404.69-.126.375-3.507-.508-4.506 0 0-2.373.066-2.869-.061-.636-.188-.188-.812-.188-.812l2.307-5.009-.31-1.377h-8.573l7.062-4.946c.374-13.014 13.705-14.022 21.768-8.649 4.761 3.19 5.137 9.45 4.772 13.832l-1.252.061s-.81 4.76 1.315 4.757l9.38-.008c3.818-.124 7.51 2.442 7.51 2.442l.938-3.26-20.594-26.726z"/>
        <path fill="#FEFEFE" d="M21 16h10.636l8.034 24.066h.099L47.368 16H58v35h-7.071V26.197h-.094L42.415 51h-5.82L28.17 26.441h-.094V51H21zM65 16h7.458v28.529H89V51H65zM102.613 45.017h8.146c3.01 0 5.628-.976 5.628-4.608 0-3.577-2.23-4.997-5.479-4.997h-8.295v9.605zm0-14.85h7.713c2.662 0 4.653-1.225 4.653-4.17 0-3.332-2.518-4.016-5.236-4.016h-7.13v8.185zM95 16h16.296c6.594 0 11.052 2.155 11.052 8.675 0 3.43-1.697 5.832-4.703 7.304 4.22 1.225 6.355 4.51 6.355 8.872C124 47.959 118.034 51 111.78 51H95V16zM158 32.153h-6.961V50h-6.079V32.153H138V27h20zM172.414 50h-7.028L158 27h6.372l4.595 17.104h.066L173.628 27H180zM136 47c0-2.209-1.789-4-4-4-2.212 0-4 1.791-4 4 0 2.21 1.788 4 4 4 2.211 0 4-1.79 4-4"/>
    </g>
</svg>
